<?xml version="1.0" encoding="UTF-8"?>
<svg id="Camada_2" data-name="Camada 2" xmlns="http://www.w3.org/2000/svg" viewBox="0 0 1513.86 159.1">
  <g id="Camada_1-2" data-name="Camada 1">
    <g>
      <g>
        <path d="M172.1,79.54c0-21.71-.03-43.42.05-65.14,0-2.18.41-4.45,1.13-6.51,1.32-3.78,4.4-5.63,8.23-6.18,1.87-.27,3.78-.31,5.67-.32,13.97-.02,27.94-.16,41.9.03,13.51.18,26.77,2.16,39.19,7.79,18.02,8.17,29.71,21.93,35.35,40.84,3.26,10.94,4.11,22.14,3.76,33.52-.32,10.38-1.93,20.48-5.56,30.19-7.14,19.12-20.92,31.43-39.89,38.22-8.96,3.21-18.28,4.74-27.78,5.21-1.67.08-3.34.19-5.01.19-14.64.01-29.28.02-43.91-.01-1.6,0-3.25-.13-4.8-.51-5.6-1.38-8.24-5.21-8.32-11.86-.04-2.9,0-5.81,0-8.71,0-18.92,0-37.84,0-56.76ZM195.41,137.99h1.95c9.44,0,18.89.03,28.33-.01,6.64-.03,13.26-.49,19.74-2.02,17.49-4.12,29.65-14.2,34.77-31.76,4.3-14.73,4.28-29.69,1.28-44.63-3.94-19.67-17.47-32.84-37.06-36.86-8.43-1.73-16.94-1.82-25.47-1.93-7.31-.09-14.63.06-21.95.11-.53,0-1.05.08-1.61.13,0,39.03,0,77.86,0,116.96Z"/>
        <path d="M829.49,159.03c-21.4,0-42.8.02-64.2-.03-1.64,0-3.35-.3-4.91-.8-4.71-1.52-6.92-6.06-5.23-11.38,1.22-3.85,2.96-7.54,4.61-11.24,18.71-41.94,37.45-83.87,56.16-125.82,1.81-4.05,4.14-7.62,8.62-8.95,1.71-.51,3.62-.35,5.43-.47,4.88-.31,8.49,1.97,10.67,6.07,2.66,5,4.92,10.22,7.23,15.39,17.57,39.34,35.11,78.7,52.65,118.05.75,1.68,1.38,3.41,2.2,5.05,1.21,2.41,1.29,4.98.97,7.52-.39,3.14-2.49,5.05-5.42,5.93-1.47.44-3.06.66-4.6.66-21.39.04-42.79.02-64.19.02ZM829.19,26.93c-16.2,37.88-32.27,75.47-48.36,113.12h96.46c-16.05-37.74-32.02-75.3-48.1-113.12Z"/>
        <path d="M398.09,138.98c-15.37,0-30.73.02-46.1-.03-1.33,0-1.93.4-2.46,1.61-1.93,4.43-3.88,8.86-6.04,13.18-3.07,6.14-12.03,6.68-16.77,3-3.04-2.36-3.76-5.77-2.66-9.19,1.41-4.37,3.27-8.62,5.14-12.83,12.32-27.69,24.69-55.35,37.05-83.01,6.28-14.06,12.6-28.11,18.84-42.19,1.79-4.03,4.2-7.41,8.6-8.75,1.5-.45,3.17-.31,4.77-.42,6.05-.42,9.95,2.68,12.32,7.87,5.73,12.6,11.34,25.26,16.97,37.9,14.56,32.66,29.12,65.31,43.6,98,.92,2.08,1.4,4.46,1.55,6.73.24,3.77-2.09,6.61-5.76,7.56-6.87,1.77-12.59-.39-15.9-7.5-1.62-3.48-3.2-6.98-4.68-10.51-.46-1.11-1.04-1.44-2.21-1.44-15.42.04-30.85.02-46.27.02ZM398.21,26.83c-13.3,31.3-26.41,62.16-39.58,93.14h79.05c-13.16-31.05-26.24-61.93-39.47-93.14Z"/>
        <path d="M74.49.01c6.5-.26,10.44,3.08,12.9,8.59,10.1,22.59,20.2,45.17,30.27,67.77,10.1,22.65,20.17,45.31,30.22,67.98,1.11,2.5,1.88,5.09,1.26,7.93-.63,2.89-2.36,4.8-5.07,5.7-5.58,1.87-12.31.62-15.34-5.3-2.58-5.04-4.86-10.24-7.17-15.41-2.42-5.43-4.76-10.9-7.08-16.38-.52-1.22-1.19-1.76-2.61-1.76-25.14.04-50.29.04-75.43,0-1.24,0-1.73.46-2.17,1.53-4.05,9.63-8.13,19.25-12.29,28.83-.79,1.82-1.86,3.56-2.97,5.21-3.52,5.22-12.71,5.15-16.71,1.18-2.62-2.6-2.7-6-1.72-9.08,1.52-4.74,3.6-9.31,5.63-13.88C22.56,96.22,38.94,59.5,55.33,22.8c2.27-5.08,4.65-10.11,6.97-15.16C64.73,2.37,68.8-.22,74.49.01ZM72.62,26.81c-10.46,24.78-20.74,49.15-31.06,73.6h62.33c-10.4-24.49-20.73-48.81-31.27-73.6Z"/>
        <path d="M520.9,97v2.18c0,15.24.02,30.48-.03,45.72,0,2.05-.22,4.13-.61,6.13-.86,4.37-3.66,6.96-8.01,7.61-2.01.3-4.16.3-6.15-.07-5.43-1-8.14-4.56-8.45-10.61-.02-.45,0-.89,0-1.34,0-44.04,0-88.08.02-132.12,0-1.82.09-3.7.49-5.47.89-3.97,4.34-6.9,8.38-7.32,1.83-.19,3.67-.3,5.51-.3,17.15-.02,34.31-.09,51.46.02,9.66.06,19.08,1.58,27.86,5.95,11.84,5.88,19.12,15.33,22.09,28.17,2.39,10.31,2.2,20.58-.9,30.66-4.47,14.57-14.64,23.43-28.97,27.82-6.15,1.88-12.5,2.74-18.95,2.76-8.77.03-17.53-.01-26.3.01-5.36.01-10.72.08-16.08.13-.4,0-.78.04-1.38.08ZM520.97,78.32c.49.02.82.05,1.14.05,12.62,0,25.24.14,37.86-.07,4.3-.07,8.7-.61,12.85-1.69,8.75-2.29,15.24-7.41,18.04-16.4,1.51-4.86,1.85-9.86,1.43-14.88-.8-9.63-4.92-17.22-13.96-21.6-5.06-2.46-10.45-3.54-15.99-3.59-13.23-.11-26.47-.04-39.7-.04-.54,0-1.08.05-1.67.08,0,19.41,0,38.69,0,58.15Z"/>
        <path d="M708.98,20.9v2.44c0,40.8.01,81.6-.03,122.4,0,1.99-.24,4.01-.69,5.95-.83,3.54-3.1,5.77-6.67,6.75-3.13.86-6.17.71-9.18-.39-4.22-1.54-6.47-5.39-6.49-11.2-.03-9.04,0-18.08,0-27.13V20.9h-2.1c-14.58,0-29.17,0-43.75-.01-1.28,0-2.59,0-3.83-.26-4.18-.88-6.72-3.9-7.02-8.23-.15-2.3-.03-4.57,1.16-6.64,1.94-3.37,5.21-4.09,8.71-4.34.45-.03.89,0,1.34,0,38.1,0,76.21,0,114.31.02,1.44,0,2.91.12,4.3.47,5.04,1.25,7.37,4.79,6.9,10.27-.45,5.17-3.55,8.26-8.69,8.62-1.11.08-2.23.13-3.34.13-14.25,0-28.49,0-42.74,0-.66,0-1.32,0-2.18,0Z"/>
      </g>
      <g>
        <path d="M1170.3,53.14c-28.68,0-33.36,5.4-33.36,25.8v.96c0,20.76,4.68,25.8,33.36,25.8s33.48-5.04,33.48-25.8v-.96c0-20.76-4.56-25.8-33.48-25.8Z"/>
        <path d="M1044.78,54.46h-30.84v49.92h30.84c28.2,0,32.76-5.04,32.76-24.48v-.96c0-19.44-4.56-24.48-32.76-24.48Z"/>
        <path d="M1461.59.1h-463.47c-28.87,0-52.27,23.4-52.27,52.27v54.47c0,28.87,23.4,52.27,52.27,52.27h463.47c28.87,0,52.27-23.4,52.27-52.27v-54.47c0-28.87-23.4-52.27-52.27-52.27ZM1098.18,80.74c0,31.44-10.44,41.28-53.4,41.28h-51.12c.12-6,.12-10.92.12-18.84v-51.12c0-6.12,0-10.2-.12-15.24h51.12c42.96,0,53.4,9.84,53.4,41.28v2.64ZM1224.42,81.34c0,32.28-10.44,42.36-54.12,42.36s-54-10.08-54-42.36v-3.84c0-32.4,10.44-42.36,54-42.36s54.12,9.96,54.12,42.36v3.84ZM1295.82,123.69c-42.84,0-53.4-10.08-53.4-42.36v-3.84c0-32.4,10.56-42.36,53.4-42.36s52.8,7.68,52.56,35.16l-19.92.48c0-13.2-3.6-17.64-32.64-17.64s-32.64,5.4-32.64,25.8v.96c0,20.76,4.56,25.8,32.88,25.8s32.4-4.56,32.52-17.64l19.92.48c.24,27-9.6,35.16-52.68,35.16ZM1419.06,123.69c-45.24,0-53.16-5.28-53.16-27v-1.32l19.92-.36v2.52c0,8.04,4.08,9.72,33,9.72,25.92,0,28.44-2.28,28.44-9v-.24c0-6.24-3.24-8.76-34.32-10.8-39.96-2.52-46.44-8.16-46.44-26.28s7.32-25.8,47.76-25.8c43.68,0,49.56,7.8,49.56,26.04v1.08l-19.92.48v-2.4c0-6.6-3.96-8.88-29.52-8.88-24.12,0-27.48,2.28-27.48,8.28,0,6.36,2.76,8.28,33.96,10.2,40.44,2.64,46.68,10.08,46.68,27.36,0,18.6-6.84,26.4-48.48,26.4Z"/>
      </g>
    </g>
  </g>
</svg>