<svg width="24" height="24" viewBox="0 0 24 24" fill="none" xmlns="http://www.w3.org/2000/svg">
<g clip-path="url(#clip0_14439_29580)">
<g clip-path="url(#clip1_14439_29580)">
<path d="M24 0H0V24H24V0Z" fill="#DCEEFE"/>
<path d="M19.1281 7.82604C18.6921 8.04004 18.3501 7.90804 17.9221 8.04104C17.6681 8.12004 17.4781 8.33104 17.2431 8.44404C17.0881 8.25404 17.0811 8.02404 16.9071 7.83204C16.5841 7.47604 16.0521 7.47304 15.7741 7.00304C15.6881 6.85804 15.6361 6.57104 15.5521 6.48104C15.2171 6.12304 14.9911 7.25604 14.9771 7.46404C14.9031 8.56704 15.4161 9.32804 16.2471 9.97604L15.9521 10.742C14.8831 10.38 14.2261 9.40404 13.4201 8.68004C12.9831 8.28704 11.9031 7.83404 12.5801 7.09804C12.7371 6.92704 13.3161 6.74803 12.6411 6.68403C11.6831 6.59403 11.1601 7.09703 10.4071 7.15903C9.93613 7.19803 9.32013 7.04804 8.78113 7.08804C6.49513 7.25503 5.03713 9.10404 4.83313 11.272C4.83313 11.272 4.16113 15.503 8.76613 17.166C9.15413 17.321 9.55813 17.437 9.96813 17.511C9.96813 17.511 10.7581 17.625 11.6711 17.51C11.8161 17.495 11.9631 17.47 12.1101 17.437C12.4561 17.364 12.8051 17.253 13.1221 17.086C13.3021 17.003 13.4761 16.914 13.6401 16.821C13.8061 16.727 14.1631 16.399 14.2801 16.374C14.4171 16.346 14.7711 16.518 14.9581 16.547C15.3591 16.609 16.4491 16.691 16.7361 16.398C17.3361 15.786 15.4291 15.614 15.4551 15.323C15.6771 14.965 16.0011 14.691 16.2491 14.353C17.1191 13.167 17.5331 11.732 17.5771 10.268C17.9491 10.112 18.3181 10.081 18.6881 9.89104C19.3921 9.52904 19.9011 8.71704 19.9801 7.93604C20.1061 6.69904 19.5471 7.62104 19.1261 7.82604H19.1281ZM13.0481 16.293C12.2511 16.293 10.9291 14.66 10.0541 14.546C9.33313 14.452 10.1591 15.49 10.0971 15.703C9.97813 16.114 9.16113 15.929 8.86313 15.81C7.30613 15.186 5.97413 12.872 5.84413 11.251C5.78313 10.49 5.83213 10.358 6.61813 10.335C8.15413 10.29 9.92913 11.339 10.9151 12.472C11.6711 13.341 12.1891 14.429 12.9801 15.279C13.3261 15.651 13.7471 15.929 14.0971 16.293H13.0481ZM13.1851 11.691C13.3331 11.977 12.8821 12.064 12.8181 11.954C12.6511 11.668 13.0371 11.405 13.1851 11.691ZM14.9461 12.707C14.7081 13.08 13.8751 12.922 13.6331 12.527C13.3751 12.106 13.6421 11.776 13.4801 11.529C13.3161 11.278 12.9071 11.387 12.7611 11.268C12.5581 11.103 12.7921 10.872 12.9941 10.825C13.5941 10.689 14.0891 11.166 14.4231 11.6C14.5571 11.774 15.0541 12.535 14.9461 12.705V12.707Z" fill="#4D6BFE"/>
</g>
</g>
<defs>
<clipPath id="clip0_14439_29580">
<rect width="24" height="24" rx="6" fill="white"/>
</clipPath>
<clipPath id="clip1_14439_29580">
<rect width="24" height="24" fill="white"/>
</clipPath>
</defs>
</svg>
