<svg width="24" height="24" viewBox="0 0 24 24" fill="none" xmlns="http://www.w3.org/2000/svg">
<g clip-path="url(#clip0_14439_29350)">
<g clip-path="url(#clip1_14439_29350)">
<path d="M24 0H0V24H24V0Z" fill="url(#paint0_radial_14439_29350)"/>
<path d="M18.3188 9.43605C18.4958 8.22505 17.7358 7.01205 16.5518 6.62005C16.1968 5.54505 15.1868 4.80005 14.0708 4.80005C13.2588 4.80005 12.4978 5.18305 11.9998 5.83305C11.5018 5.18305 10.7418 4.80005 9.9288 4.80005C8.8128 4.80005 7.8028 5.54505 7.4478 6.62005C6.2638 7.01205 5.5038 8.22405 5.6808 9.43605C5.1278 9.85905 4.7998 10.501 4.7998 11.172V12.828C4.7998 13.498 5.1278 14.141 5.6808 14.564C5.5038 15.775 6.2638 16.988 7.4478 17.38C7.8028 18.455 8.8128 19.2 9.9288 19.2C10.6278 19.2 11.2868 18.922 11.7828 18.416C11.8598 18.337 11.9328 18.254 11.9988 18.167C12.0658 18.254 12.1378 18.337 12.2148 18.416C12.7108 18.921 13.3698 19.2 14.0688 19.2C15.1848 19.2 16.1948 18.455 16.5498 17.38C17.7338 16.988 18.4938 15.776 18.3168 14.564C18.8698 14.141 19.1978 13.499 19.1978 12.828V11.172C19.1978 10.502 18.8698 9.85905 18.3168 9.43605H18.3188ZM16.5608 13.293C16.4638 13.402 16.4148 13.543 16.4238 13.688C16.4328 13.834 16.4968 13.968 16.6068 14.064L17.2158 14.605C17.2398 14.711 17.2518 14.807 17.2518 14.897C17.2518 15.63 16.7278 16.259 16.0048 16.392C15.7828 16.433 15.6068 16.609 15.5658 16.831C15.4318 17.557 14.7898 18.105 14.0708 18.105C13.2308 18.105 12.5468 17.409 12.5468 16.554V14.73C12.8828 14.927 13.2618 15.03 13.6568 15.03C13.9578 15.03 14.2038 14.785 14.2038 14.483C14.2038 14.181 13.9588 13.936 13.6568 13.936C13.0448 13.936 12.5468 13.438 12.5468 12.826V11.17C12.5468 10.558 13.0448 10.06 13.6568 10.06C13.9578 10.06 14.2038 9.81505 14.2038 9.51305C14.2038 9.21105 13.9588 8.96605 13.6568 8.96605C13.2618 8.96605 12.8828 9.06905 12.5468 9.26605V7.44205C12.5468 6.58705 13.2308 5.89105 14.0708 5.89105C14.7898 5.89105 15.4318 6.43905 15.5658 7.16505C15.6068 7.38705 15.7828 7.56305 16.0048 7.60405C16.7268 7.73705 17.2518 8.36605 17.2518 9.09905C17.2518 9.19005 17.2398 9.28605 17.2158 9.39105L16.6068 9.93205C16.3818 10.132 16.3608 10.478 16.5618 10.704C16.7618 10.929 17.1078 10.95 17.3338 10.749L17.7488 10.38C17.9748 10.591 18.1078 10.879 18.1078 11.169V12.825C18.1078 13.115 17.9758 13.403 17.7488 13.614L17.3338 13.245C17.2248 13.148 17.0838 13.099 16.9388 13.108C16.7928 13.117 16.6598 13.181 16.5628 13.291L16.5608 13.293ZM9.7968 9.51505C9.7968 9.81605 10.0418 10.062 10.3438 10.062C10.9558 10.062 11.4538 10.56 11.4538 11.172V12.828C11.4538 13.44 10.9558 13.938 10.3438 13.938C10.0428 13.938 9.7968 14.183 9.7968 14.485C9.7968 14.787 10.0418 15.0321 10.3438 15.0321C10.7388 15.0321 11.1178 14.929 11.4538 14.732V16.556C11.4538 17.411 10.7698 18.107 9.9298 18.107C9.2108 18.107 8.5688 17.559 8.4348 16.833C8.3938 16.611 8.2178 16.435 7.9958 16.394C7.2738 16.261 6.7488 15.632 6.7488 14.899C6.7488 14.808 6.7608 14.712 6.7848 14.607L7.3938 14.066C7.6188 13.866 7.6398 13.52 7.4388 13.294C7.2388 13.069 6.8918 13.048 6.6668 13.249L6.2518 13.618C6.0258 13.407 5.8928 13.119 5.8928 12.829V11.173C5.8928 10.883 6.0248 10.595 6.2518 10.384L6.6668 10.753C6.7758 10.85 6.9168 10.899 7.0628 10.89C7.2078 10.881 7.3418 10.816 7.4378 10.708C7.5348 10.599 7.5838 10.458 7.5748 10.313C7.5658 10.167 7.5018 10.033 7.3918 9.93705L6.7828 9.39605C6.7588 9.29005 6.7468 9.19405 6.7468 9.10405C6.7468 8.37105 7.2708 7.74205 7.9938 7.60905C8.2158 7.56805 8.3918 7.39205 8.4328 7.17005C8.5668 6.44405 9.2088 5.89605 9.9278 5.89605C10.7678 5.89605 11.4518 6.59205 11.4518 7.44705V9.27105C11.1158 9.07405 10.7368 8.97105 10.3418 8.97105C10.0408 8.97105 9.7948 9.21605 9.7948 9.51805L9.7968 9.51505Z" fill="white"/>
</g>
</g>
<defs>
<radialGradient id="paint0_radial_14439_29350" cx="0" cy="0" r="1" gradientUnits="userSpaceOnUse" gradientTransform="translate(12.078 -0.133999) scale(23.513)">
<stop stop-color="#FF004D"/>
<stop offset="1" stop-color="#CC1D00"/>
</radialGradient>
<clipPath id="clip0_14439_29350">
<rect width="24" height="24" rx="6" fill="white"/>
</clipPath>
<clipPath id="clip1_14439_29350">
<rect width="24" height="24" fill="white"/>
</clipPath>
</defs>
</svg>
