<?xml version="1.0" encoding="UTF-8"?>
<svg id="Camada_2" data-name="Camada 2" xmlns="http://www.w3.org/2000/svg" xmlns:xlink="http://www.w3.org/1999/xlink" viewBox="0 0 324 324">
  <defs>
    <style>
      .cls-1 {
        fill: url(#Gradiente_sem_nome_9);
      }

      .cls-2 {
        fill: #fff;
      }
    </style>
    <radialGradient id="Gradiente_sem_nome_9" data-name="Gradiente sem nome 9" cx="253.82" cy="304.3" fx="253.82" fy="304.3" r="276.43" gradientUnits="userSpaceOnUse">
      <stop offset=".2" stop-color="#3d4249"/>
      <stop offset=".71" stop-color="#000"/>
    </radialGradient>
  </defs>
  <g id="Camada_1-2" data-name="Camada 1">
    <g>
      <rect class="cls-1" x="0" y="0" width="324" height="324" rx="162" ry="162"/>
      <path class="cls-2" d="M207.4,68.5h-90.8c-18.12,0-32.81,14.69-32.81,32.81v123.38c0,18.12,14.69,32.81,32.81,32.81h90.8c18.12,0,32.81-14.69,32.81-32.81v-123.38c0-18.12-14.69-32.81-32.81-32.81ZM201.67,222.5h-80c-6.9,0-12.5-5.6-12.5-12.5s5.6-12.5,12.5-12.5h80c6.9,0,12.5,5.6,12.5,12.5s-5.6,12.5-12.5,12.5ZM201.67,175.5h-80c-6.9,0-12.5-5.6-12.5-12.5s5.6-12.5,12.5-12.5h80c6.9,0,12.5,5.6,12.5,12.5s-5.6,12.5-12.5,12.5ZM201.67,128.5h-80c-6.9,0-12.5-5.6-12.5-12.5s5.6-12.5,12.5-12.5h80c6.9,0,12.5,5.6,12.5,12.5s-5.6,12.5-12.5,12.5Z"/>
    </g>
  </g>
</svg>