<svg width="24" height="24" viewBox="0 0 24 24" fill="none" xmlns="http://www.w3.org/2000/svg">
<g clip-path="url(#clip0_14439_29372)">
<g clip-path="url(#clip1_14439_29372)">
<path d="M24 0H0V24H24V0Z" fill="url(#paint0_radial_14439_29372)"/>
<path d="M18.7128 13.484C18.0048 13.496 17.4408 14.08 17.4538 14.788C17.4548 14.85 17.4608 14.913 17.4708 14.974C17.4668 15.248 17.2408 15.468 16.9668 15.464C16.6978 15.46 16.4808 15.243 16.4768 14.974V8.017C16.4768 7.194 15.8088 6.527 14.9848 6.527C14.1618 6.527 13.4958 7.194 13.4948 8.017V16.962C13.4908 17.236 13.2648 17.456 12.9898 17.451C12.7208 17.447 12.5048 17.23 12.5008 16.962V7.016C12.4218 5.056 9.59181 5.056 9.51881 7.023V15.96C9.52181 16.234 9.30281 16.46 9.02781 16.463C8.75381 16.466 8.52781 16.247 8.52481 15.972C8.52481 15.97 8.52481 15.969 8.52481 15.967V10.004C8.52481 9.181 7.85681 8.513 7.03381 8.514C6.21081 8.514 5.54381 9.181 5.54381 10.004V13.234C5.54381 13.371 5.43281 13.482 5.29581 13.482C5.02181 13.482 4.79881 13.705 4.79981 13.979C4.79981 14.253 5.02181 14.475 5.29581 14.475C5.98181 14.475 6.53781 13.919 6.53781 13.233V10.008C6.52681 9.746 6.72981 9.525 6.99181 9.513C7.00581 9.513 7.02081 9.513 7.03481 9.513C7.29581 9.5 7.51781 9.701 7.53181 9.962C7.53181 9.975 7.53181 9.989 7.53181 10.002V15.972C7.54281 16.795 8.21881 17.454 9.04181 17.443C9.85281 17.432 10.5068 16.775 10.5128 15.964V7.019C10.5168 6.745 10.7428 6.525 11.0168 6.53C11.2858 6.534 11.5018 6.751 11.5058 7.019V16.957C11.5058 17.78 12.1738 18.448 12.9968 18.447C13.8198 18.447 14.4868 17.78 14.4868 16.957V8.012C14.4868 7.738 14.7098 7.515 14.9838 7.516C15.2578 7.516 15.4798 7.738 15.4798 8.012V14.984C15.6288 17.155 18.6898 16.779 18.4608 14.721C18.4618 14.583 18.5748 14.472 18.7128 14.473C18.7128 14.473 18.7128 14.473 18.7138 14.473C18.9878 14.465 19.2038 14.235 19.1958 13.961C19.1878 13.697 18.9738 13.485 18.7098 13.479L18.7128 13.484Z" fill="white"/>
</g>
</g>
<defs>
<radialGradient id="paint0_radial_14439_29372" cx="0" cy="0" r="1" gradientUnits="userSpaceOnUse" gradientTransform="translate(12.091 0.00299932) scale(23.736)">
<stop stop-color="#00CCB3"/>
<stop offset="1" stop-color="#0E9C8B"/>
</radialGradient>
<clipPath id="clip0_14439_29372">
<rect width="24" height="24" rx="6" fill="white"/>
</clipPath>
<clipPath id="clip1_14439_29372">
<rect width="24" height="24" fill="white"/>
</clipPath>
</defs>
</svg>
