<svg width="24" height="24" viewBox="0 0 24 24" fill="none" xmlns="http://www.w3.org/2000/svg">
<g clip-path="url(#clip0_14439_29274)">
<g clip-path="url(#clip1_14439_29274)">
<path d="M24 0H0V24H24V0Z" fill="black"/>
<path d="M20.0051 18.0659H18.6691C18.6551 18.0659 18.6331 18.1009 18.5781 18.0789L12.0891 8.2449L11.9491 8.1189L6.2351 16.8729L14.3091 16.8759C14.4021 16.8909 14.4311 16.9149 14.4911 16.9819C14.6151 17.1199 15.0111 17.7489 15.1051 17.9299C15.1291 17.9759 15.1691 18.0019 15.1551 18.0649H3.9751L12.0091 5.8999L20.0041 18.0659H20.0051Z" fill="white"/>
<path d="M12.3589 12.189H13.6949C13.7279 12.189 13.8509 12.295 13.8739 12.339L17.5779 18.046C17.5709 18.154 17.2329 18.067 17.1499 18.066C16.8839 18.062 16.4359 18.109 16.2029 18.066C16.1479 18.056 16.1099 18.032 16.0769 17.987L12.3979 12.336L12.3599 12.189H12.3589Z" fill="white"/>
<path d="M12.1539 15.4358H9.31787L10.7359 13.2578L12.1539 15.4358Z" fill="white"/>
<path d="M20.005 12.065H17.168L18.607 9.88696L20.005 12.065Z" fill="white"/>
</g>
</g>
<defs>
<clipPath id="clip0_14439_29274">
<rect width="24" height="24" rx="6" fill="white"/>
</clipPath>
<clipPath id="clip1_14439_29274">
<rect width="24" height="24" fill="white"/>
</clipPath>
</defs>
</svg>
