<svg width="24" height="24" viewBox="0 0 24 24" fill="none" xmlns="http://www.w3.org/2000/svg">
<g clip-path="url(#clip0_14439_29633)">
<g clip-path="url(#clip1_14439_29633)">
<path d="M24 0H0V24H24V0Z" fill="white"/>
<path d="M18.862 14.5399C18.795 14.6109 18.687 14.6919 18.61 14.7569C18.677 14.9119 18.77 15.0479 18.829 15.2079C19.52 17.0839 17.684 18.8509 15.837 18.1449C15.711 18.3729 15.618 18.5999 15.449 18.8029C14.673 19.7369 13.295 19.9359 12.31 19.1969C12.16 19.0849 11.995 18.9259 11.893 18.7739C11.536 18.9499 11.136 19.0319 10.739 19.0509C10.553 19.0599 10.288 19.0649 10.105 19.0509C9.29601 18.9879 9.32101 17.9339 9.98901 17.8269C10.669 17.7189 11.114 17.9729 11.716 17.4399C12.731 16.5429 12.162 14.8909 10.836 14.7629H5.93601C5.16701 14.7449 5.06901 13.6979 5.81801 13.5379H10.699C12.744 13.4239 12.733 10.5819 10.679 10.4549L5.80301 10.4509C5.10201 10.2879 5.15701 9.33993 5.85801 9.23093H10.778C12.235 9.13793 12.769 7.29393 11.584 6.44893C11.01 6.03993 10.593 6.24593 9.98901 6.16693C9.32801 6.07993 9.32701 5.01993 10.027 4.94393C10.486 4.89393 11.034 4.96293 11.487 5.04293C13.899 3.47093 17.189 4.70593 17.997 7.44493C19.574 8.03593 20.029 10.1229 18.769 11.2759C19.706 12.1479 19.745 13.6089 18.861 14.5389L18.862 14.5399ZM16.656 7.39593C16.097 6.12693 14.705 5.38993 13.333 5.62393C13.118 5.66093 12.911 5.72593 12.705 5.79593C13.092 6.23893 13.372 6.76293 13.436 7.35593C14.202 7.21693 15.015 7.47293 15.54 8.04793C15.84 7.73093 16.225 7.48693 16.656 7.39593ZM13.397 11.3869C14.545 11.1079 15.716 11.7539 16.098 12.8639C16.259 13.3299 16.264 13.6859 16.787 13.9129C17.991 14.4349 18.867 12.7319 17.776 12.0549C17.505 11.8869 17.344 11.9359 17.07 11.8719C16.475 11.7339 16.443 10.8789 17.023 10.6969C17.364 10.5899 17.557 10.6909 17.891 10.4189C18.96 9.54493 17.625 7.90293 16.529 8.79993C16.234 9.04193 16.215 9.27493 16.163 9.61893C16.1 10.0349 15.79 10.3189 15.357 10.1879C14.835 10.0299 14.999 9.54193 14.843 9.18093C14.649 8.72993 14.149 8.47793 13.669 8.56793C13.568 8.58693 13.337 8.66493 13.27 8.74193C13.191 8.83293 13.086 9.10993 12.998 9.24093C12.845 9.46893 12.64 9.68093 12.429 9.85693C12.909 10.2419 13.26 10.7859 13.397 11.3879V11.3869ZM12.448 14.1719C12.57 14.2549 12.715 14.3929 12.814 14.5079C13.66 15.4929 13.666 17.0039 12.862 18.0149C13.201 18.5119 13.974 18.5409 14.404 18.1329C14.799 17.7579 14.707 17.4559 14.68 16.9879C14.652 16.5119 15.096 16.1769 15.538 16.3669C15.793 16.4769 15.882 16.7789 16.145 16.9259C17.274 17.5569 18.329 16.0739 17.379 15.2269C16.536 15.2959 15.666 14.8429 15.244 14.1129C14.908 13.5319 15.008 12.7679 14.192 12.5769C13.989 12.5299 13.542 12.5549 13.387 12.7089C13.344 12.7519 13.262 13.0499 13.223 13.1379C13.115 13.3839 12.925 13.6659 12.745 13.8649C12.689 13.9269 12.478 14.0959 12.459 14.1319C12.451 14.1459 12.445 14.1529 12.45 14.1719H12.448Z" fill="black"/>
<path d="M4.60103 11.392L10.482 11.386C11.292 11.426 11.332 12.561 10.502 12.63H4.61503C3.82503 12.559 3.80303 11.478 4.60103 11.392Z" fill="black"/>
<path d="M7.90012 7.08496H10.6161C11.2991 7.24796 11.2481 8.19396 10.5591 8.30296L7.93912 8.29996C7.26012 8.18396 7.21912 7.23796 7.90012 7.08496Z" fill="black"/>
<path d="M7.89904 15.718H10.596C11.281 15.869 11.266 16.803 10.579 16.936L7.91904 16.933C7.24804 16.8 7.23404 15.874 7.89904 15.718Z" fill="black"/>
</g>
</g>
<defs>
<clipPath id="clip0_14439_29633">
<rect width="24" height="24" rx="6" fill="white"/>
</clipPath>
<clipPath id="clip1_14439_29633">
<rect width="24" height="24" fill="white"/>
</clipPath>
</defs>
</svg>
