<svg width="24" height="24" viewBox="0 0 24 24" fill="none" xmlns="http://www.w3.org/2000/svg">
<g clip-path="url(#clip0_14439_29525)">
<g clip-path="url(#clip1_14439_29525)">
<path d="M24 0H0V24H24V0Z" fill="#F8EFDB"/>
<path d="M17.729 10.7221V8.18711H17.73V5.64111H15.184V8.18111H15.183H12.637V10.7221H10.091V8.18111H7.546V5.64111H5V8.18111V8.18711V10.7221V10.7271V13.2671V15.8131V18.3591H7.546V15.8131V13.2671H10.091V15.8081H12.637V13.2671H15.183H15.184V15.8131V18.3591H17.73V15.8131V13.2671H17.729V10.7271V10.7221Z" fill="black"/>
<path d="M8.81602 15.8132H6.27002V18.3592H8.81602V15.8132Z" fill="#FF060F"/>
<path d="M8.81602 13.2671H6.27002V15.8131H8.81602V13.2671Z" fill="#FF4A0A"/>
<path d="M19.0001 15.8132H16.4541V18.3592H19.0001V15.8132Z" fill="#FF060F"/>
<path d="M19.0001 13.2671H16.4541V15.8131H19.0001V13.2671Z" fill="#FF4A0A"/>
<path d="M8.81602 10.7222H6.27002V13.2682H8.81602V10.7222Z" fill="#FF6F00"/>
<path d="M11.3619 10.7222H8.81592V13.2682H11.3619V10.7222Z" fill="#FF6F00"/>
<path d="M8.81602 8.18115H6.27002V10.7272H8.81602V8.18115Z" fill="#FFA200"/>
<path d="M8.81602 5.64111H6.27002V8.18711H8.81602V5.64111Z" fill="#FFCD00"/>
<path d="M19.0001 5.64111H16.4541V8.18711H19.0001V5.64111Z" fill="#FFCD00"/>
<path d="M11.3619 8.18115H8.81592V10.7272H11.3619V8.18115Z" fill="#FFA200"/>
<path d="M13.9078 10.7222H11.3618V13.2682H13.9078V10.7222Z" fill="#FF6F00"/>
<path d="M13.9078 13.2622H11.3618V15.8082H13.9078V13.2622Z" fill="#FF4A0A"/>
<path d="M16.4532 10.7222H13.9072V13.2682H16.4532V10.7222Z" fill="#FF6F00"/>
<path d="M18.9991 10.7222H16.4531V13.2682H18.9991V10.7222Z" fill="#FF6F00"/>
<path d="M16.4532 8.18115H13.9072V10.7272H16.4532V8.18115Z" fill="#FFA200"/>
<path d="M18.9991 8.18115H16.4531V10.7272H18.9991V8.18115Z" fill="#FFA200"/>
</g>
</g>
<defs>
<clipPath id="clip0_14439_29525">
<rect width="24" height="24" rx="6" fill="white"/>
</clipPath>
<clipPath id="clip1_14439_29525">
<rect width="24" height="24" fill="white"/>
</clipPath>
</defs>
</svg>
