<svg width="24" height="24" viewBox="0 0 24 24" fill="none" xmlns="http://www.w3.org/2000/svg">
<g clip-path="url(#clip0_13316_17377)">
<g clip-path="url(#clip1_13316_17377)">
<path d="M24 0H0V24H24V0Z" fill="url(#paint0_radial_13316_17377)"/>
<path d="M12.0003 13.2202C12.6735 13.2202 13.2193 12.6745 13.2193 12.0012C13.2193 11.328 12.6735 10.7822 12.0003 10.7822C11.327 10.7822 10.7812 11.328 10.7812 12.0012C10.7812 12.6745 11.327 13.2202 12.0003 13.2202Z" fill="white"/>
<path d="M7.23994 9.68395C6.82094 9.79695 6.37794 9.71095 6.02094 9.46595C5.70694 9.24995 5.29894 9.17395 4.90194 9.29895C4.26894 9.49795 3.88694 10.1569 4.02994 10.8049C4.18894 11.5289 4.91794 11.9649 5.62494 11.7749C6.00494 11.6729 6.29994 11.4109 6.45594 11.0809C6.64094 10.6909 6.97894 10.3959 7.39494 10.2839C7.81394 10.1709 8.25694 10.2569 8.61394 10.5019C8.92794 10.7179 9.33594 10.7939 9.73294 10.6689C10.3659 10.4699 10.7479 9.81095 10.6049 9.16295C10.4459 8.43895 9.71694 8.00295 9.00994 8.19295C8.62994 8.29495 8.33494 8.55695 8.17894 8.88695C7.99394 9.27695 7.65594 9.57195 7.23994 9.68395Z" fill="white"/>
<path d="M7.6116 14.9637C7.4996 15.3837 7.2036 15.7247 6.8126 15.9117C6.4686 16.0757 6.1986 16.3907 6.1086 16.7967C5.9646 17.4447 6.3436 18.1047 6.9766 18.3047C7.6826 18.5287 8.4256 18.1167 8.6146 17.4087C8.7166 17.0287 8.6366 16.6427 8.4286 16.3417C8.1836 15.9867 8.0966 15.5467 8.2076 15.1297C8.3196 14.7097 8.6156 14.3687 9.0066 14.1817C9.3506 14.0177 9.6206 13.7027 9.7106 13.2967C9.8546 12.6487 9.4756 11.9887 8.8426 11.7887C8.1366 11.5647 7.3936 11.9767 7.2046 12.6847C7.1026 13.0647 7.1826 13.4507 7.3906 13.7517C7.6356 14.1067 7.7226 14.5467 7.6116 14.9637Z" fill="white"/>
<path d="M12.3716 17.2804C12.6786 17.5874 12.8256 18.0144 12.7926 18.4464C12.7626 18.8264 12.9006 19.2174 13.2066 19.4984C13.6956 19.9474 14.4566 19.9484 14.9466 19.5004C15.4936 19.0004 15.5076 18.1514 14.9896 17.6344C14.7106 17.3564 14.3366 17.2324 13.9726 17.2614C13.5426 17.2964 13.1176 17.1514 12.8126 16.8464C12.5056 16.5394 12.3586 16.1124 12.3916 15.6804C12.4216 15.3004 12.2836 14.9094 11.9776 14.6284C11.4886 14.1794 10.7276 14.1784 10.2376 14.6264C9.69057 15.1264 9.67657 15.9754 10.1946 16.4924C10.4736 16.7704 10.8476 16.8944 11.2116 16.8654C11.6416 16.8304 12.0666 16.9754 12.3716 17.2804Z" fill="white"/>
<path d="M16.7582 14.3172C17.1772 14.2042 17.6202 14.2902 17.9772 14.5352C18.2912 14.7512 18.6992 14.8272 19.0962 14.7022C19.7292 14.5032 20.1112 13.8442 19.9682 13.1962C19.8092 12.4722 19.0802 12.0362 18.3732 12.2262C17.9932 12.3282 17.6982 12.5902 17.5422 12.9202C17.3572 13.3102 17.0192 13.6052 16.6032 13.7172C16.1842 13.8302 15.7412 13.7442 15.3842 13.4992C15.0702 13.2832 14.6622 13.2072 14.2652 13.3322C13.6322 13.5312 13.2502 14.1902 13.3932 14.8382C13.5522 15.5622 14.2812 15.9982 14.9882 15.8082C15.3682 15.7062 15.6632 15.4442 15.8192 15.1142C16.0042 14.7242 16.3422 14.4292 16.7582 14.3172Z" fill="white"/>
<path d="M16.3834 9.03694C16.4954 8.61694 16.7914 8.27594 17.1824 8.08894C17.5264 7.92494 17.7964 7.60994 17.8864 7.20394C18.0304 6.55594 17.6514 5.89594 17.0184 5.69594C16.3124 5.47194 15.5694 5.88394 15.3804 6.59194C15.2784 6.97194 15.3584 7.35794 15.5664 7.65894C15.8114 8.01394 15.8984 8.45394 15.7874 8.87094C15.6754 9.29094 15.3794 9.63194 14.9884 9.81894C14.6444 9.98294 14.3744 10.2979 14.2844 10.7039C14.1404 11.3519 14.5194 12.0119 15.1524 12.2119C15.8584 12.4359 16.6014 12.0239 16.7904 11.3159C16.8924 10.9359 16.8124 10.5499 16.6044 10.2489C16.3594 9.89394 16.2724 9.45394 16.3834 9.03694Z" fill="white"/>
<path d="M11.6279 6.72107C11.3209 6.41407 11.1739 5.98707 11.2079 5.55507C11.2379 5.17507 11.0999 4.78407 10.7949 4.50207C10.3069 4.05307 9.54486 4.05107 9.05486 4.49807C8.50686 4.99707 8.49286 5.84607 9.01086 6.36407C9.28886 6.64207 9.66286 6.76707 10.0269 6.73707C10.4569 6.70207 10.8819 6.84807 11.1869 7.15307C11.4939 7.46007 11.6409 7.88707 11.6069 8.31907C11.5769 8.69907 11.7149 9.09007 12.0199 9.37207C12.5079 9.82107 13.2699 9.82307 13.7599 9.37607C14.3079 8.87707 14.3219 8.02807 13.8039 7.51007C13.5259 7.23207 13.1519 7.10707 12.7879 7.13707C12.3579 7.17207 11.9329 7.02607 11.6279 6.72107Z" fill="white"/>
</g>
</g>
<defs>
<radialGradient id="paint0_radial_13316_17377" cx="0" cy="0" r="1" gradientUnits="userSpaceOnUse" gradientTransform="translate(17.062 4.291) scale(25.382)">
<stop stop-color="#F8E48B"/>
<stop offset="0.02" stop-color="#F7E287"/>
<stop offset="0.27" stop-color="#F4CA5A"/>
<stop offset="0.36" stop-color="#DBB04F"/>
<stop offset="0.52" stop-color="#9F7237"/>
<stop offset="0.77" stop-color="#684011"/>
<stop offset="1" stop-color="#D1A54B"/>
</radialGradient>
<clipPath id="clip0_13316_17377">
<rect width="24" height="24" rx="6" fill="white"/>
</clipPath>
<clipPath id="clip1_13316_17377">
<rect width="24" height="24" fill="white"/>
</clipPath>
</defs>
</svg>
