<svg width="24" height="24" viewBox="0 0 24 24" fill="none" xmlns="http://www.w3.org/2000/svg">
<g clip-path="url(#clip0_14439_29315)">
<g clip-path="url(#clip1_14439_29315)">
<path d="M24 0H0V24H24V0Z" fill="url(#paint0_radial_14439_29315)"/>
<path d="M12.1141 10.4858C11.2791 10.4858 10.6001 11.1648 10.6001 11.9998C10.6001 12.8348 11.2791 13.5138 12.1141 13.5138C12.9491 13.5138 13.6281 12.8348 13.6281 11.9998C13.6281 11.1648 12.9491 10.4858 12.1141 10.4858Z" fill="white"/>
<path d="M6.98105 13.8619C6.98105 13.3379 6.55505 12.9119 6.03105 12.9119C5.50705 12.9119 5.08105 13.3379 5.08105 13.8619C5.08105 14.3859 5.50705 14.8119 6.03105 14.8119C6.55505 14.8119 6.98105 14.3859 6.98105 13.8619Z" fill="white"/>
<path d="M17.4312 11.9999C17.5822 11.8329 17.7252 11.6659 17.8562 11.4989C18.8772 10.2019 19.1752 9.02988 18.6962 8.19988C18.2172 7.36988 17.0532 7.04288 15.4202 7.27788C14.4072 7.42388 13.2712 7.77488 12.1152 8.29088C11.5062 8.01888 10.9022 7.79288 10.3192 7.61888C10.3772 7.44188 10.4392 7.27088 10.5042 7.10788C10.8612 6.21488 11.3092 5.60488 11.7522 5.38388C11.8412 5.00288 12.0482 4.66588 12.3332 4.41588C12.2602 4.40588 12.1872 4.40088 12.1132 4.40088C11.1552 4.40088 10.2892 5.24488 9.67618 6.77688C9.59718 6.97488 9.52318 7.18088 9.45418 7.39588C9.23418 7.34788 9.01818 7.30888 8.80718 7.27888C7.17318 7.04388 6.01018 7.37088 5.53118 8.20088C5.05218 9.03088 5.35018 10.2019 6.37118 11.4999C7.00418 12.3049 7.87518 13.1129 8.90018 13.8559C8.96918 14.5199 9.07518 15.1549 9.21618 15.7469C9.03418 15.7849 8.85518 15.8169 8.68118 15.8419C7.73018 15.9789 6.97918 15.8969 6.56518 15.6239C6.39618 15.6759 6.21618 15.7039 6.03018 15.7039C5.82218 15.7039 5.62218 15.6689 5.43518 15.6049C5.46318 15.6729 5.49518 15.7379 5.53118 15.8019C5.90918 16.4569 6.71218 16.7989 7.83618 16.7989C8.13718 16.7989 8.46218 16.7739 8.80718 16.7249C9.01818 16.6949 9.23418 16.6549 9.45418 16.6079C9.52318 16.8229 9.59718 17.0289 9.67618 17.2269C10.2892 18.7589 11.1542 19.6029 12.1132 19.6029C13.0722 19.6029 13.9372 18.7589 14.5502 17.2269C14.9302 16.2759 15.1952 15.1179 15.3262 13.8579C15.8662 13.4669 16.3632 13.0569 16.8062 12.6389C16.9302 12.7779 17.0472 12.9159 17.1562 13.0549C17.7522 13.8119 18.0562 14.5059 18.0252 15.0009C18.3002 15.2599 18.4962 15.6009 18.5722 15.9859C18.6172 15.9279 18.6592 15.8669 18.6962 15.8019C19.1752 14.9719 18.8772 13.8009 17.8562 12.5029C17.7242 12.3359 17.5822 12.1679 17.4312 12.0019V11.9999ZM15.5462 8.15988C16.7592 7.98488 17.6482 8.16688 17.9242 8.64588C18.2012 9.12488 17.9132 9.98588 17.1562 10.9489C17.0472 11.0869 16.9302 11.2259 16.8062 11.3649C15.9642 10.5699 14.9242 9.80488 13.7682 9.13688C13.5722 9.02388 13.3762 8.91588 13.1802 8.81088C14.0122 8.48788 14.8162 8.26488 15.5472 8.15988H15.5462ZM7.07218 10.9479C6.31418 9.98488 6.02718 9.12388 6.30418 8.64488C6.58018 8.16588 7.46918 7.98388 8.68218 8.15888C8.85718 8.18388 9.03518 8.21588 9.21718 8.25388C8.94918 9.37988 8.80718 10.6639 8.80718 11.9989C8.80718 12.2249 8.81118 12.4489 8.81918 12.6709C8.12418 12.1119 7.52818 11.5269 7.07218 10.9469V10.9479ZM9.69718 11.9999C9.69718 10.7369 9.83018 9.52888 10.0792 8.47588C11.1162 8.78688 12.2292 9.27588 13.3222 9.90688C14.4162 10.5379 15.3952 11.2569 16.1832 11.9999C15.3952 12.7419 14.4152 13.4619 13.3222 14.0929C12.2292 14.7239 11.1162 15.2129 10.0792 15.5239C9.83018 14.4709 9.69718 13.2629 9.69718 11.9999ZM13.7242 16.8929C13.2692 18.0309 12.6672 18.7099 12.1142 18.7099C11.5612 18.7099 10.9592 18.0309 10.5042 16.8929C10.4382 16.7289 10.3772 16.5589 10.3192 16.3819C11.4282 16.0499 12.6112 15.5319 13.7682 14.8649C13.9642 14.7519 14.1562 14.6359 14.3442 14.5179C14.2072 15.3999 13.9982 16.2079 13.7242 16.8939V16.8929Z" fill="white"/>
<path d="M16.7659 15.3889C16.2419 15.3889 15.8159 15.8149 15.8159 16.3389C15.8159 16.8629 16.2419 17.2889 16.7659 17.2889C17.2899 17.2889 17.7159 16.8629 17.7159 16.3389C17.7159 15.8149 17.2899 15.3889 16.7659 15.3889Z" fill="white"/>
<path d="M13.5442 6.74888C14.0682 6.74888 14.4942 6.32288 14.4942 5.79888C14.4942 5.27488 14.0682 4.84888 13.5442 4.84888C13.0202 4.84888 12.5942 5.27488 12.5942 5.79888C12.5942 6.32288 13.0202 6.74888 13.5442 6.74888Z" fill="white"/>
</g>
</g>
<defs>
<radialGradient id="paint0_radial_14439_29315" cx="0" cy="0" r="1" gradientUnits="userSpaceOnUse" gradientTransform="translate(12.028 -0.0840008) scale(24.155)">
<stop stop-color="#690DDD"/>
<stop offset="1" stop-color="#470995"/>
</radialGradient>
<clipPath id="clip0_14439_29315">
<rect width="24" height="24" rx="6" fill="white"/>
</clipPath>
<clipPath id="clip1_14439_29315">
<rect width="24" height="24" fill="white"/>
</clipPath>
</defs>
</svg>
