<svg width="24" height="24" viewBox="0 0 24 24" fill="none" xmlns="http://www.w3.org/2000/svg">
<g clip-path="url(#clip0_14439_29208)">
<g clip-path="url(#clip1_14439_29208)">
<path d="M24 0H0V24H24V0Z" fill="#24B8CB"/>
<path d="M17.6411 8.60302V3.78802L12.4371 8.09002V3.91402L12.3991 3.89502H12.3871C12.3181 3.89502 12.2521 3.89602 12.1891 3.89702C12.0561 3.89902 11.9311 3.90202 11.8101 3.89202C11.7081 3.88302 11.6391 3.89902 11.5931 3.94202C11.5321 3.99802 11.5251 4.09102 11.5251 4.17402C11.5311 5.17702 11.5301 6.19702 11.5291 7.18402V7.87602C11.5291 7.92302 11.5261 7.97002 11.5231 8.02902C11.5231 8.03102 11.5231 8.03302 11.5231 8.03602L6.70107 3.71802V8.61002H4.72607V15.785H6.71407V20.256L11.5351 15.936V20.077H12.4421V16.051L17.2561 20.242V15.767H19.2501V8.60202H17.6411V8.60302ZM7.63607 8.58802V5.76502L10.7881 8.58802H7.63607ZM11.5331 14.557C11.5331 14.684 11.4961 14.767 11.4001 14.853C10.5021 15.654 9.60607 16.458 8.71007 17.263L7.79707 18.082C7.75207 18.123 7.70507 18.162 7.64907 18.209L7.62607 18.228C7.62207 18.18 7.61807 18.139 7.61807 18.099V17.616C7.61807 16.469 7.61707 15.283 7.62307 14.117C7.62307 14.036 7.65407 13.924 7.71007 13.868C8.80707 12.787 9.92707 11.692 11.0111 10.634L11.4911 10.165C11.5021 10.155 11.5131 10.145 11.5291 10.133V11.184C11.5291 12.309 11.5291 13.433 11.5321 14.558L11.5331 14.557ZM6.70507 14.588C6.70507 14.678 6.70307 14.769 6.70307 14.86H5.62407V9.50702H10.8571C10.8231 9.54502 10.7921 9.57702 10.7611 9.60802L10.1061 10.249C9.05607 11.276 7.97107 12.337 6.89907 13.378C6.74807 13.525 6.68907 13.66 6.69807 13.845C6.70907 14.09 6.70707 14.332 6.70507 14.588ZM13.2411 8.59302L16.7351 5.70302V8.59302H13.2411ZM17.0921 13.415C15.9891 12.342 14.8891 11.265 13.7881 10.189L13.1971 9.61102C13.1651 9.57902 13.1341 9.54702 13.0981 9.50902H18.3361V14.865H17.2451C17.2451 14.772 17.2451 14.679 17.2451 14.587C17.2441 14.313 17.2431 14.054 17.2491 13.79C17.2531 13.638 17.2051 13.526 17.0911 13.415H17.0921ZM16.3441 17.154V18.262L15.9131 17.888C15.5291 17.555 15.1601 17.234 14.7911 16.913L14.1051 16.314C13.6011 15.874 13.0971 15.434 12.5911 14.996C12.4771 14.897 12.4331 14.806 12.4331 14.669C12.4391 13.531 12.4391 12.374 12.4381 11.256V10.139C12.4851 10.181 12.5221 10.213 12.5571 10.248L13.5371 11.206C14.4241 12.073 15.3121 12.94 16.2021 13.804C16.3061 13.905 16.3461 14 16.3451 14.143C16.3401 15.146 16.3411 16.166 16.3421 17.152L16.3441 17.154Z" fill="white"/>
</g>
</g>
<defs>
<clipPath id="clip0_14439_29208">
<rect width="24" height="24" rx="6" fill="white"/>
</clipPath>
<clipPath id="clip1_14439_29208">
<rect width="24" height="24" fill="white"/>
</clipPath>
</defs>
</svg>
