<svg width="24" height="24" viewBox="0 0 24 24" fill="none" xmlns="http://www.w3.org/2000/svg">
<g clip-path="url(#clip0_14439_29602)">
<g clip-path="url(#clip1_14439_29602)">
<path d="M24 0H0V24H24V0Z" fill="white"/>
<path d="M11.7759 4.01697C17.9799 3.87197 22.0359 10.541 18.9339 15.966C16.1149 20.896 9.16589 21.401 5.67289 16.907C1.65689 11.742 5.26189 4.16897 11.7759 4.01697ZM12.7319 5.54797C12.1589 4.96297 11.1379 5.37897 11.1169 6.18997V17.537C11.2109 18.646 12.7219 18.756 12.9859 17.692C13.0329 13.812 13.0339 9.91697 12.9859 6.03697C12.9529 5.86497 12.8549 5.67297 12.7329 5.54797H12.7319ZM10.1819 16.156V7.54897C8.47489 8.28197 7.36289 9.98897 7.36189 11.852C7.36089 13.715 8.46789 15.426 10.1819 16.155V16.156ZM13.9509 16.156C15.2289 15.613 16.2359 14.448 16.5989 13.106C17.2129 10.839 16.0829 8.48697 13.9509 7.54897V16.156Z" fill="black"/>
</g>
</g>
<defs>
<clipPath id="clip0_14439_29602">
<rect width="24" height="24" rx="6" fill="white"/>
</clipPath>
<clipPath id="clip1_14439_29602">
<rect width="24" height="24" fill="white"/>
</clipPath>
</defs>
</svg>
