<svg width="24" height="24" viewBox="0 0 24 24" fill="none" xmlns="http://www.w3.org/2000/svg">
<g clip-path="url(#clip0_14439_29236)">
<g clip-path="url(#clip1_14439_29236)">
<path d="M24 0H0V24H24V0Z" fill="#2F0463"/>
<path d="M12.8168 6.94397V9.44397C12.0068 8.84297 10.6798 8.38297 9.38083 8.38297C8.22183 8.38297 7.57883 8.81597 7.57883 9.49997C7.57883 10.226 8.31883 10.52 9.71583 10.883C11.5458 11.358 13.5288 11.986 13.5288 14.347C13.5288 16.54 11.8108 17.978 8.86383 17.978C7.27183 17.978 5.86083 17.545 4.84083 16.819V14.109C5.77683 14.933 7.07583 15.603 8.73783 15.603C10.0228 15.603 10.7488 15.128 10.7488 14.374C10.7488 13.564 9.85483 13.299 8.31883 12.838C6.47483 12.321 4.79883 11.609 4.79883 9.56997C4.79883 7.53097 6.47483 6.02197 9.26783 6.02197C10.6088 6.02197 11.9778 6.38497 12.8158 6.94397H12.8168Z" fill="white"/>
<path d="M15.8477 16.134C15.8477 15.184 16.5737 14.458 17.5237 14.458C18.4737 14.458 19.1997 15.184 19.1997 16.134C19.1997 17.084 18.4597 17.81 17.5237 17.81C16.5737 17.824 15.8477 17.07 15.8477 16.134Z" fill="#E80000"/>
</g>
</g>
<defs>
<clipPath id="clip0_14439_29236">
<rect width="24" height="24" rx="6" fill="white"/>
</clipPath>
<clipPath id="clip1_14439_29236">
<rect width="24" height="24" fill="white"/>
</clipPath>
</defs>
</svg>
